<svg xmlns="http://www.w3.org/2000/svg" viewBox="0 0 512 512">
  <rect width="512" height="512" rx="108" fill="#0f172a"/>
  <path d="M126 304h260l-28-82c-9-27-25-42-54-42h-96c-29 0-45 15-54 42l-28 82Z" fill="#2dd4bf"/>
  <path d="M146 292h220c26 0 46 20 46 46v42c0 11-9 20-20 20h-20c-11 0-20-9-20-20v-6H160v6c0 11-9 20-20 20h-20c-11 0-20-9-20-20v-42c0-26 20-46 46-46Z" fill="#f8fafc"/>
  <circle cx="170" cy="340" r="25" fill="#0f172a"/>
  <circle cx="342" cy="340" r="25" fill="#0f172a"/>
  <path d="M204 216h104c10 0 18 6 22 16l14 42H168l14-42c4-10 12-16 22-16Z" fill="#0f172a"/>
  <path d="M168 118h176v36H168z" fill="#f8fafc"/>
  <path d="M198 82h116v36H198z" fill="#2dd4bf"/>
</svg>
